<?xml version="1.0" encoding="UTF-8" standalone="no"?>
<svg
   xmlns:dc="http://purl.org/dc/elements/1.1/"
   xmlns:cc="http://creativecommons.org/ns#"
   xmlns:rdf="http://www.w3.org/1999/02/22-rdf-syntax-ns#"
   xmlns:svg="http://www.w3.org/2000/svg"
   xmlns="http://www.w3.org/2000/svg"
   xmlns:sodipodi="http://sodipodi.sourceforge.net/DTD/sodipodi-0.dtd"
   xmlns:inkscape="http://www.inkscape.org/namespaces/inkscape"
   width="483.17383"
   height="483.17383"
   viewBox="0 0 127.83974 127.83975"
   version="1.1"
   id="svg8"
   inkscape:version="1.0.2 (1.0.2+r75+1)"
   sodipodi:docname="logo-negativo-inkscapesvg.svg">
  <defs
     id="defs2" />
  <sodipodi:namedview
     id="base"
     pagecolor="#ffffff"
     bordercolor="#666666"
     borderopacity="1.0"
     inkscape:pageopacity="0.0"
     inkscape:pageshadow="2"
     inkscape:zoom="0.7"
     inkscape:cx="325.95833"
     inkscape:cy="237.84192"
     inkscape:document-units="px"
     inkscape:current-layer="layer1"
     inkscape:document-rotation="0"
     showgrid="false"
     units="px"
     showborder="false"
     inkscape:snap-bbox="true"
     inkscape:bbox-nodes="false"
     inkscape:snap-nodes="false"
     inkscape:bbox-paths="false"
     inkscape:snap-bbox-midpoints="true"
     inkscape:snap-bbox-edge-midpoints="false"
     fit-margin-top="0"
     fit-margin-left="0"
     fit-margin-right="0"
     fit-margin-bottom="0"
     inkscape:window-width="1366"
     inkscape:window-height="705"
     inkscape:window-x="0"
     inkscape:window-y="30"
     inkscape:window-maximized="1" />
  <metadata
     id="metadata5">
    <rdf:RDF>
      <cc:Work
         rdf:about="">
        <dc:format>image/svg+xml</dc:format>
        <dc:type
           rdf:resource="http://purl.org/dc/dcmitype/StillImage" />
        <dc:title></dc:title>
      </cc:Work>
    </rdf:RDF>
  </metadata>
  <g
     inkscape:label="Capa 1"
     inkscape:groupmode="layer"
     id="layer1"
     transform="translate(-42.850287,-93.736975)">
    <circle
       style="opacity:1;fill:#00baff;fill-opacity:1;stroke:#00baff;stroke-width:9.26042;stroke-linecap:round;stroke-linejoin:round;stroke-miterlimit:4;stroke-dasharray:none;stroke-opacity:0.998911"
       id="path860"
       cx="106.77016"
       cy="157.65685"
       r="59.289661" />
    <path
       id="path862-3"
       style="color:#000000;font-style:normal;font-variant:normal;font-weight:normal;font-stretch:normal;font-size:medium;line-height:normal;font-family:sans-serif;font-variant-ligatures:normal;font-variant-position:normal;font-variant-caps:normal;font-variant-numeric:normal;font-variant-alternates:normal;font-variant-east-asian:normal;font-feature-settings:normal;font-variation-settings:normal;text-indent:0;text-align:start;text-decoration:none;text-decoration-line:none;text-decoration-style:solid;text-decoration-color:#000000;letter-spacing:normal;word-spacing:normal;text-transform:none;writing-mode:lr-tb;direction:ltr;text-orientation:mixed;dominant-baseline:auto;baseline-shift:baseline;text-anchor:start;white-space:normal;shape-padding:0;shape-margin:0;inline-size:0;clip-rule:nonzero;display:inline;overflow:visible;visibility:visible;opacity:1;isolation:auto;mix-blend-mode:normal;color-interpolation:sRGB;color-interpolation-filters:linearRGB;solid-color:#000000;solid-opacity:1;vector-effect:none;fill:#ffffff;fill-opacity:1;fill-rule:nonzero;stroke:none;stroke-width:3.77953;stroke-linecap:round;stroke-linejoin:round;stroke-miterlimit:4;stroke-dasharray:none;stroke-dashoffset:0;stroke-opacity:1;color-rendering:auto;image-rendering:auto;shape-rendering:auto;text-rendering:auto;enable-background:accumulate;stop-color:#000000;stop-opacity:1"
       d="m 404.46875,543.47656 c -32.79757,0 -62.34993,14.44917 -82.63086,37.29492 a 93.037647,93.037654 0 0 0 22.09766,27.89454 c 13.73786,-18.36324 35.67212,-30.1836 60.5332,-30.1836 41.92558,0 75.53906,33.61348 75.53906,75.53906 4e-5,41.92559 -33.61348,75.53125 -75.53906,75.53125 -41.92555,0 -75.53126,-33.60566 -75.53125,-75.53125 0,-2.33533 0.12005,-4.64054 0.32422,-6.91992 a 132.5,132.5 0 0 1 -29.63086,-28.06054 c -3.69341,11.00379 -5.69922,22.76701 -5.69922,34.98046 -1e-5,60.84099 49.69614,110.53516 110.53711,110.53516 60.84102,0 110.54301,-49.69417 110.54297,-110.53516 0,-60.84098 -49.70199,-110.54492 -110.54297,-110.54492 z"
       transform="scale(0.26458333)" />
    <path
       id="path862"
       style="color:#000000;font-style:normal;font-variant:normal;font-weight:normal;font-stretch:normal;font-size:medium;line-height:normal;font-family:sans-serif;font-variant-ligatures:normal;font-variant-position:normal;font-variant-caps:normal;font-variant-numeric:normal;font-variant-alternates:normal;font-variant-east-asian:normal;font-feature-settings:normal;font-variation-settings:normal;text-indent:0;text-align:start;text-decoration:none;text-decoration-line:none;text-decoration-style:solid;text-decoration-color:#000000;letter-spacing:normal;word-spacing:normal;text-transform:none;writing-mode:lr-tb;direction:ltr;text-orientation:mixed;dominant-baseline:auto;baseline-shift:baseline;text-anchor:start;white-space:normal;shape-padding:0;shape-margin:0;inline-size:0;clip-rule:nonzero;display:inline;overflow:visible;visibility:visible;opacity:1;isolation:auto;mix-blend-mode:normal;color-interpolation:sRGB;color-interpolation-filters:linearRGB;solid-color:#000000;solid-opacity:1;vector-effect:none;fill:#ffffff;fill-opacity:1;fill-rule:nonzero;stroke:#fbfeff;stroke-width:3.77953;stroke-linecap:round;stroke-linejoin:round;stroke-miterlimit:4;stroke-dasharray:none;stroke-dashoffset:0;stroke-opacity:0.99891073;color-rendering:auto;image-rendering:auto;shape-rendering:auto;text-rendering:auto;enable-background:accumulate;stop-color:#000000;stop-opacity:1"
       d="m 404.46875,427.47852 c -60.84095,0 -110.5371,49.69417 -110.53711,110.53515 10e-6,60.84098 49.69616,110.54489 110.53711,110.54492 32.35695,0 61.56113,-14.05999 81.81641,-36.375 a 93.037648,93.037655 0 0 0 -22.37891,-27.41406 c -13.79432,17.55421 -35.22011,28.7832 -59.4375,28.7832 -41.92554,0 -75.53125,-33.61348 -75.53125,-75.53906 0,-41.92558 33.60571,-75.53121 75.53125,-75.53125 41.92558,0 75.53906,33.60567 75.53906,75.53125 0,3.0742 -0.20321,6.09743 -0.55469,9.07227 a 132.5,132.5 0 0 1 29.28516,27.56054 c 4.05733,-11.47581 6.27344,-23.80534 6.27344,-36.63281 0,-60.84098 -49.70199,-110.53515 -110.54297,-110.53515 z"
       transform="scale(0.26458333)" />
  </g>
</svg>
