<svg width="483.17" height="483.17" version="1.1" viewBox="0 0 127.84 127.84" xmlns="http://www.w3.org/2000/svg">
 <g transform="translate(-42.85 -93.737)">
  <circle cx="106.77" cy="157.66" r="59.29" fill="none" stroke="#00baff" stroke-linecap="round" stroke-linejoin="round" stroke-opacity=".99891" stroke-width="9.2604"/>
  <path transform="scale(.26458)" d="m404.47 427.48c-60.841 0-110.54 49.694-110.54 110.54 1e-5 60.841 49.696 110.54 110.54 110.54 32.357 0 61.561-14.06 81.816-36.375a93.038 93.038 0 0 0-22.379-27.414c-13.794 17.554-35.22 28.783-59.438 28.783-41.926 0-75.531-33.613-75.531-75.539s33.606-75.531 75.531-75.531c41.926 0 75.539 33.606 75.539 75.531 0 3.0742-0.20321 6.0974-0.55469 9.0723a132.5 132.5 0 0 1 29.285 27.561c4.0573-11.476 6.2734-23.805 6.2734-36.633 0-60.841-49.702-110.54-110.54-110.54z" color="#000000" color-rendering="auto" dominant-baseline="auto" fill="#00baff" image-rendering="auto" shape-rendering="auto" solid-color="#000000" stop-color="#000000" style="font-feature-settings:normal;font-variant-alternates:normal;font-variant-caps:normal;font-variant-east-asian:normal;font-variant-ligatures:normal;font-variant-numeric:normal;font-variant-position:normal;font-variation-settings:normal;inline-size:0;isolation:auto;mix-blend-mode:normal;shape-margin:0;shape-padding:0;text-decoration-color:#000000;text-decoration-line:none;text-decoration-style:solid;text-indent:0;text-orientation:mixed;text-transform:none;white-space:normal"/>
  <path transform="scale(.26458)" d="m404.47 543.48c-32.798 0-62.35 14.449-82.631 37.295a93.038 93.038 0 0 0 22.098 27.895c13.738-18.363 35.672-30.184 60.533-30.184 41.926 0 75.539 33.613 75.539 75.539 4e-5 41.926-33.613 75.531-75.539 75.531-41.926 0-75.531-33.606-75.531-75.531 0-2.3353 0.12005-4.6405 0.32422-6.9199a132.5 132.5 0 0 1-29.631-28.061c-3.6934 11.004-5.6992 22.767-5.6992 34.98-1e-5 60.841 49.696 110.54 110.54 110.54 60.841 0 110.54-49.694 110.54-110.54 0-60.841-49.702-110.54-110.54-110.54z" color="#000000" color-rendering="auto" dominant-baseline="auto" fill="#00baff" image-rendering="auto" shape-rendering="auto" solid-color="#000000" stop-color="#000000" style="font-feature-settings:normal;font-variant-alternates:normal;font-variant-caps:normal;font-variant-east-asian:normal;font-variant-ligatures:normal;font-variant-numeric:normal;font-variant-position:normal;font-variation-settings:normal;inline-size:0;isolation:auto;mix-blend-mode:normal;shape-margin:0;shape-padding:0;text-decoration-color:#000000;text-decoration-line:none;text-decoration-style:solid;text-indent:0;text-orientation:mixed;text-transform:none;white-space:normal"/>
 </g>
</svg>
